<svg width="60" height="60" viewBox="0 0 60 60" fill="none" xmlns="http://www.w3.org/2000/svg">
<path d="M40.7551 0.871626L55.7288 16.7451C61.8682 23.2516 61.8682 33.7111 55.7288 40.2176L42.6063 54.1268C41.5167 55.2808 39.7358 55.293 38.6345 54.1513C37.5331 53.0096 37.5214 51.1436 38.611 49.9896L51.7217 36.0804C55.6936 31.8696 55.6936 25.1053 51.7217 20.8945L36.7598 5.02106C35.6702 3.86708 35.6819 2.00106 36.7833 0.85935C37.8846 -0.282358 39.6655 -0.270081 40.7551 0.883903V0.871626ZM0.333344 24.246V5.89269C0.333344 2.63943 2.85238 0 5.95725 0H23.4734C25.4652 0 27.3749 0.822521 28.7809 2.29569L48.4646 22.9201C51.3937 25.9892 51.3937 30.9612 48.4646 34.0303L32.8231 50.4193C29.894 53.4884 25.1488 53.4884 22.2197 50.4193L2.53604 29.7949C1.11835 28.3217 0.333344 26.3329 0.333344 24.246ZM17.205 13.7496C17.205 11.5767 15.5296 9.82114 13.4558 9.82114C11.382 9.82114 9.70651 11.5767 9.70651 13.7496C9.70651 15.9225 11.382 17.6781 13.4558 17.6781C15.5296 17.6781 17.205 15.9225 17.205 13.7496Z" fill="black" />
</svg>
