<svg width="60" height="60" viewBox="0 0 60 60" fill="none" xmlns="http://www.w3.org/2000/svg">
<path d="M59.318 30.1922C59.318 32.3015 57.7901 33.9539 56.0584 33.9539H52.7989L52.8702 52.7273C52.8702 53.0437 52.8498 53.3601 52.8193 53.6765V55.5633C52.8193 58.1531 50.996 60.2508 48.7448 60.2508H47.1151C47.003 60.2508 46.891 60.2508 46.7789 60.239C46.6363 60.2508 46.4937 60.2508 46.3511 60.2508H43.0406H40.596C38.3449 60.2508 36.5216 58.1531 36.5216 55.5633V52.7508V45.2508C36.5216 43.1765 35.065 41.5008 33.262 41.5008H26.743C24.94 41.5008 23.4834 43.1765 23.4834 45.2508V52.7508V55.5633C23.4834 58.1531 21.6601 60.2508 19.409 60.2508H16.9644H13.715C13.5622 60.2508 13.4094 60.239 13.2566 60.2273C13.1344 60.239 13.0122 60.2508 12.8899 60.2508H11.2602C9.00905 60.2508 7.18575 58.1531 7.18575 55.5633V42.4383C7.18575 42.3328 7.18575 42.2156 7.19593 42.1101V33.9539H3.92621C2.09272 33.9539 0.666672 32.3133 0.666672 30.1922C0.666672 29.1375 0.972253 28.2 1.68528 27.3797L27.8023 1.18826C28.5153 0.36795 29.3302 0.250763 30.0432 0.250763C30.7563 0.250763 31.5712 0.485138 32.1823 1.07108L58.1975 27.3797C59.0124 28.2 59.4198 29.1375 59.318 30.1922Z" fill="black"/>
</svg>
