<svg width="60" height="60" viewBox="0 0 60 60" fill="none" xmlns="http://www.w3.org/2000/svg">
<path d="M59.3334 9.62576C59.3334 11.7351 57.6948 13.6805 54.9334 15.2508C51.599 17.1375 46.6261 18.4734 40.9198 18.8719C40.4959 18.6609 40.0719 18.4617 39.625 18.2859C35.1104 16.3523 29.1063 15.2508 22.6667 15.2508C21.7156 15.2508 20.7875 15.2742 19.8594 15.3211L19.7334 15.2508C16.9719 13.6805 15.3334 11.7351 15.3334 9.62576C15.3334 4.44608 25.1875 0.250763 37.3334 0.250763C49.4792 0.250763 59.3334 4.44608 59.3334 9.62576ZM19.0802 19.1297C20.249 19.0476 21.4521 19.0008 22.6667 19.0008C29.7938 19.0008 36.1188 20.4422 40.1406 22.6804C42.9823 24.2625 44.6667 26.2312 44.6667 28.3758C44.6667 28.8445 44.5865 29.3015 44.4261 29.7469C43.899 31.2937 42.4781 32.7117 40.4156 33.907C40.4042 33.9187 40.3813 33.9187 40.3698 33.9304C40.3354 33.9539 40.3011 33.9656 40.2667 33.989C36.2563 36.2625 29.8625 37.739 22.6667 37.739C15.8375 37.739 9.73023 36.4148 5.68544 34.3289C5.46773 34.2234 5.26148 34.1062 5.05523 33.989C2.30523 32.4304 0.666687 30.4851 0.666687 28.3758C0.666687 24.2976 6.78544 20.8172 15.3334 19.5398C16.5365 19.364 17.7854 19.2234 19.0802 19.1297ZM48.3334 28.3758C48.3334 25.8094 47.1188 23.7 45.5719 22.118C48.8146 21.6023 51.7823 20.782 54.3031 19.7156C56.1709 18.9187 57.9125 17.9344 59.3334 16.7273V20.8758C59.3334 23.1375 57.4427 25.2234 54.3146 26.8406C52.6417 27.7078 50.6021 28.4461 48.3104 29.0086C48.3219 28.7976 48.3334 28.5984 48.3334 28.3875V28.3758ZM44.6667 39.6258C44.6667 41.7351 43.0281 43.6805 40.2667 45.2508C40.0604 45.368 39.8542 45.4734 39.6365 45.5906C35.6031 47.6765 29.4959 49.0008 22.6667 49.0008C15.4709 49.0008 9.0771 47.5242 5.06669 45.2508C2.30523 43.6805 0.666687 41.7351 0.666687 39.6258V35.4773C2.09898 36.6844 3.82919 37.6687 5.6969 38.4656C10.2229 40.3992 16.2271 41.5008 22.6667 41.5008C29.1063 41.5008 35.1104 40.3992 39.6365 38.4656C40.5302 38.0906 41.3896 37.657 42.2031 37.1883C42.9021 36.7898 43.5552 36.3445 44.174 35.8758C44.3459 35.7469 44.5063 35.6062 44.6667 35.4773V35.8758V36.5437V39.6258ZM48.3334 39.6258V35.8758V32.8406C50.5104 32.3484 52.5156 31.7273 54.3031 30.9656C56.1709 30.1687 57.9125 29.1844 59.3334 27.9773V32.1258C59.3334 33.3562 58.7604 34.5867 57.6261 35.7469C55.7584 37.657 52.4698 39.2273 48.3104 40.2469C48.3219 40.0476 48.3334 39.8367 48.3334 39.6258V39.6258ZM22.6667 52.7508C29.1063 52.7508 35.1104 51.6492 39.6365 49.7156C41.5042 48.9187 43.2459 47.9344 44.6667 46.7273V50.8758C44.6667 56.0555 34.8125 60.2508 22.6667 60.2508C10.5209 60.2508 0.666687 56.0555 0.666687 50.8758V46.7273C2.09898 47.9344 3.82919 48.9187 5.6969 49.7156C10.2229 51.6492 16.2271 52.7508 22.6667 52.7508Z" fill="black"/>
</svg>
