<svg width="40" height="40" viewBox="0 0 40 40" fill="none" xmlns="http://www.w3.org/2000/svg">
<path d="M0.837101 17.6468C-0.279032 18.9483 -0.279032 21.0621 0.837101 22.3637L15.1236 39.0238C16.2397 40.3254 18.0523 40.3254 19.1685 39.0238C20.2846 37.7222 20.2846 35.6085 19.1685 34.3069L9.74831 23.332L37.1427 23.332C38.7231 23.332 40 21.843 40 20C40 18.157 38.7231 16.668 37.1427 16.668L9.75724 16.668L19.1596 5.69309C20.2757 4.39152 20.2757 2.27776 19.1596 0.976182C18.0434 -0.325393 16.2308 -0.325393 15.1147 0.976182L0.828172 17.6363L0.837101 17.6468Z" fill="black"/>
</svg>
